<?xml version="1.0" standalone="no"?>
<!DOCTYPE svg PUBLIC "-//W3C//DTD SVG 20010904//EN"
 "http://www.w3.org/TR/2001/REC-SVG-20010904/DTD/svg10.dtd">
<svg version="1.0" xmlns="http://www.w3.org/2000/svg"
 width="1504.000000pt" height="1983.000000pt" viewBox="0 0 1504.000000 1983.000000"
 preserveAspectRatio="xMidYMid meet">

<g transform="translate(0.000000,1983.000000) scale(0.100000,-0.100000)"
fill="#000000" stroke="none">
<path d="M4920 15805 l0 -1025 2625 0 2625 0 -2 1023 -3 1022 -2622 3 -2623 2
0 -1025z m4110 874 c109 -30 186 -75 266 -154 106 -106 174 -255 174 -385 0
-54 1 -56 43 -82 117 -74 209 -194 252 -329 30 -94 34 -239 10 -329 -56 -210
-222 -377 -430 -430 -141 -36 -277 -23 -411 39 l-62 29 -58 -29 c-222 -108
-491 -65 -672 106 -77 72 -123 144 -157 242 -87 249 9 536 228 687 l55 38 7
70 c8 86 43 192 87 265 72 119 223 229 368 267 83 22 212 20 300 -5z m-2875
-114 c66 -15 142 -35 169 -46 48 -18 48 -18 123 7 110 37 245 63 363 70 134 8
422 -13 563 -42 l27 -6 0 -715 c0 -629 -2 -714 -15 -709 -59 22 -259 40 -455
40 -196 0 -226 -2 -340 -26 -69 -15 -145 -34 -168 -42 -42 -15 -49 -14 -130 9
-182 51 -253 60 -477 59 -191 0 -393 -18 -450 -40 -13 -5 -15 80 -15 709 0
673 1 716 18 721 9 2 55 10 102 16 282 37 504 36 685 -5z"/>
<path d="M8763 16456 c-61 -20 -138 -72 -173 -116 -36 -46 -80 -137 -80 -167
0 -21 5 -23 56 -23 74 0 176 -24 248 -60 l60 -28 49 24 c67 34 188 64 259 64
l60 0 -7 33 c-12 55 -66 145 -112 188 -68 62 -142 92 -238 96 -49 2 -96 -3
-122 -11z"/>
<path d="M8568 15893 c11 -16 34 -41 50 -56 l30 -28 21 34 c11 19 21 39 21 45
0 10 -82 32 -121 32 -20 0 -20 0 -1 -27z"/>
<path d="M9095 15906 c-22 -6 -38 -16 -36 -21 15 -37 36 -75 42 -75 10 0 89
90 89 101 0 12 -47 10 -95 -5z"/>
<path d="M8280 15794 c-67 -73 -94 -143 -94 -244 0 -74 4 -93 30 -150 58 -124
173 -206 303 -217 71 -6 171 11 171 29 0 5 -11 28 -24 51 -32 56 -64 162 -72
241 -7 64 -7 65 -60 101 -65 45 -133 116 -174 184 -18 28 -33 51 -35 51 -1 0
-21 -21 -45 -46z"/>
<path d="M9370 15768 c-44 -69 -130 -152 -191 -183 -27 -15 -29 -19 -29 -75 0
-66 -36 -191 -75 -258 l-24 -43 27 -11 c15 -7 68 -12 117 -13 77 0 98 4 147
27 76 35 138 95 179 170 33 60 34 68 34 168 0 96 -3 110 -28 158 -27 51 -93
133 -106 131 -3 0 -26 -32 -51 -71z"/>
<path d="M8835 15463 c4 -21 14 -51 22 -67 l16 -30 17 35 c10 18 21 49 25 67
l7 32 -47 0 -47 0 7 -37z"/>
<path d="M5722 16358 c-108 -13 -124 -21 -120 -60 3 -38 -9 -37 239 -23 129 7
139 7 231 -19 106 -31 138 -26 138 18 0 34 -17 44 -125 71 -105 27 -221 31
-363 13z"/>
<path d="M6721 16359 c-58 -11 -143 -39 -159 -52 -17 -14 -11 -57 10 -71 13
-8 35 -4 90 14 93 30 209 36 355 20 90 -10 116 -10 128 0 22 18 18 47 -7 64
-47 29 -315 45 -417 25z"/>
<path d="M5825 16154 c-102 -10 -201 -27 -212 -36 -17 -14 -16 -53 1 -67 10
-9 42 -8 130 4 159 21 194 19 320 -12 115 -28 138 -26 144 15 4 28 -31 50
-117 72 -72 19 -198 30 -266 24z"/>
<path d="M6729 16145 c-42 -8 -98 -23 -125 -32 -43 -16 -49 -22 -52 -50 -5
-46 28 -52 123 -24 103 31 191 36 329 17 130 -17 156 -12 156 28 0 35 -17 43
-105 55 -148 19 -247 21 -326 6z"/>
<path d="M5722 15929 c-109 -15 -124 -22 -120 -61 3 -38 -9 -37 239 -23 129 7
139 7 231 -19 78 -22 100 -25 118 -16 30 16 24 61 -11 77 -90 43 -301 63 -457
42z"/>
<path d="M6721 15929 c-57 -11 -143 -39 -158 -52 -22 -16 -15 -56 10 -68 18
-8 38 -6 88 11 84 29 214 36 355 20 91 -10 117 -10 129 0 22 18 18 47 -7 64
-48 29 -313 46 -417 25z"/>
<path d="M5825 15724 c-104 -10 -201 -27 -212 -36 -18 -14 -16 -53 2 -68 11
-9 29 -10 77 -1 35 6 106 13 158 17 84 6 108 3 209 -22 120 -29 143 -27 149
14 2 13 -6 27 -22 38 -59 38 -249 69 -361 58z"/>
<path d="M6729 15715 c-42 -8 -98 -23 -125 -32 -43 -16 -49 -22 -52 -50 -5
-46 28 -52 123 -24 103 31 191 36 329 17 130 -17 156 -12 156 28 0 34 -16 43
-100 55 -135 19 -251 21 -331 6z"/>
<path d="M6340 14479 c-30 -6 -78 -8 -107 -5 -58 5 -59 -1 -20 -58 l20 -28
-39 6 c-89 15 -238 -29 -292 -86 l-22 -25 60 -44 c57 -41 59 -44 36 -50 -44
-12 -86 -49 -111 -100 -14 -26 -38 -58 -54 -70 -26 -19 -28 -24 -19 -50 12
-35 62 -79 89 -79 45 0 3 -66 -60 -95 -23 -10 -41 -21 -41 -25 0 -8 47 -52 80
-73 13 -10 39 -17 58 -17 l33 0 -26 -43 c-14 -25 -25 -59 -25 -80 0 -21 -3
-37 -6 -37 -16 0 -177 145 -199 178 -13 21 -49 122 -80 227 -31 104 -65 206
-76 226 -17 35 -57 59 -97 59 -8 0 -30 14 -49 30 -25 22 -44 30 -72 30 l-39 0
29 -31 c16 -17 29 -37 29 -44 0 -21 -47 -45 -90 -45 -45 0 -49 -5 -19 -28 19
-16 19 -19 5 -54 -9 -21 -16 -47 -16 -58 0 -11 -4 -20 -9 -20 -5 0 -22 -5 -37
-10 l-27 -11 42 -21 c35 -17 40 -24 34 -42 -12 -32 -7 -89 11 -124 9 -17 45
-55 80 -84 43 -36 71 -69 87 -103 13 -27 44 -81 69 -120 127 -196 167 -276
185 -375 11 -58 19 -145 19 -222 1 -142 1 -141 67 -108 37 20 40 20 47 3 9
-24 9 -206 -1 -261 l-7 -42 42 26 c60 37 98 71 128 111 25 33 28 34 105 37 53
3 105 13 154 30 41 14 77 26 80 26 3 0 19 -23 36 -50 16 -28 32 -50 35 -49 3
0 25 25 50 54 60 71 70 70 70 -5 0 -34 8 -81 18 -108 20 -51 83 -150 132 -206
l29 -33 -35 -154 c-46 -197 -96 -372 -132 -457 l-27 -67 -55 -7 c-30 -3 -101
-6 -158 -7 -102 -1 -117 -5 -192 -50 -8 -5 -30 -15 -47 -21 -18 -7 -42 -28
-54 -47 -24 -38 -21 -50 9 -34 54 29 82 -1 50 -54 -23 -39 -24 -59 0 -50 43
18 58 17 71 -9 11 -20 12 -31 1 -56 -15 -37 -9 -46 19 -28 17 10 24 10 39 0
74 -53 112 -52 366 9 204 50 231 68 267 177 24 76 84 194 152 299 64 99 151
169 359 287 54 30 54 44 2 77 -19 11 -34 22 -34 25 0 2 23 22 51 44 34 27 78
48 135 66 46 15 84 30 84 33 0 4 -15 25 -34 48 l-35 40 62 35 c87 50 129 61
208 56 66 -5 69 -4 69 17 0 12 -11 38 -24 58 l-25 36 56 18 c40 13 58 14 60 6
11 -31 130 -199 205 -288 78 -92 84 -102 76 -130 -4 -16 -42 -112 -85 -211
l-78 -182 -50 -6 c-27 -3 -95 -6 -150 -6 -88 0 -107 -3 -145 -24 -25 -14 -67
-35 -93 -47 -36 -16 -54 -33 -69 -62 l-20 -40 24 8 c12 4 35 9 49 12 36 7 45
-21 19 -54 -17 -22 -28 -63 -17 -63 2 0 18 7 36 16 30 15 33 15 46 -2 11 -16
11 -23 -1 -46 -8 -15 -14 -34 -14 -42 0 -14 4 -14 34 1 34 16 35 15 68 -12 50
-42 107 -35 430 55 55 15 90 50 123 121 79 172 121 221 255 299 30 18 56 33
58 35 8 7 -14 37 -35 49 l-25 13 42 36 c24 20 64 44 89 53 25 9 55 19 65 23
16 6 11 12 -30 38 -27 18 -61 34 -75 38 -31 8 -79 98 -79 149 0 35 27 122 54
174 l17 32 73 -87 c41 -49 124 -142 185 -208 101 -109 110 -123 105 -150 -13
-66 -98 -305 -137 -385 l-42 -85 -155 -5 c-139 -4 -159 -7 -190 -27 -19 -13
-48 -31 -65 -40 -43 -26 -85 -72 -85 -94 0 -18 2 -19 30 -4 38 20 47 19 55 -5
4 -13 -1 -30 -14 -46 -12 -15 -21 -35 -21 -45 0 -18 1 -18 36 -2 35 17 36 17
54 -5 15 -18 16 -27 7 -52 -13 -35 -6 -46 21 -29 16 10 25 9 52 -11 28 -20 40
-22 103 -18 71 5 278 55 349 85 20 8 48 28 62 42 15 15 67 122 117 237 50 115
100 220 112 232 12 13 63 49 112 79 50 31 92 58 95 60 3 3 -10 17 -28 32 l-32
27 22 21 c40 35 82 60 123 73 22 7 44 16 49 20 10 10 -87 67 -129 76 -16 4
-36 15 -43 25 -7 10 -37 34 -66 54 -29 19 -65 52 -79 73 -55 78 -59 105 -68
422 -6 223 -13 316 -27 383 -10 48 -16 90 -13 92 2 3 18 5 34 5 16 0 77 7 136
15 309 45 506 141 579 280 23 43 27 62 27 140 0 141 -44 218 -157 276 -147 74
-305 62 -664 -55 -93 -30 -207 -62 -253 -70 -328 -62 -686 -61 -795 2 -49 29
-79 79 -73 128 7 66 27 97 82 124 49 24 57 25 298 28 237 4 250 3 270 -16 111
-101 409 -133 651 -71 l39 11 -40 18 c-35 15 -63 44 -63 63 0 3 17 1 38 -4 71
-16 120 -10 215 28 80 31 103 36 180 37 l88 1 -33 28 c-18 15 -55 39 -83 54
-43 22 -62 26 -137 26 l-88 -1 30 28 c37 34 41 65 8 56 -13 -3 -55 -11 -95
-18 -65 -10 -80 -9 -165 13 -72 18 -119 24 -208 24 -109 0 -119 -2 -182 -32
-37 -17 -87 -45 -111 -62 l-44 -30 -188 10 c-327 18 -466 -9 -561 -106 -68
-69 -88 -128 -82 -239 9 -164 102 -255 308 -302 95 -22 448 -25 590 -5 170 23
334 59 481 106 155 49 314 85 376 85 52 0 111 -18 133 -40 10 -10 24 -37 30
-59 21 -79 -29 -137 -156 -182 -145 -51 -473 -90 -585 -70 -115 21 -291 24
-486 10 -327 -24 -624 -11 -863 37 -139 28 -142 30 -172 90 l-26 54 23 0 c13
0 35 4 48 9 27 11 97 69 97 81 0 4 -18 15 -41 25 -63 29 -105 95 -60 95 27 0
77 44 89 79 9 26 7 31 -19 50 -16 12 -40 44 -54 70 -25 51 -67 88 -111 100
-23 6 -21 9 36 50 l60 44 -22 25 c-54 57 -203 101 -292 86 l-39 -6 20 28 c40
58 40 59 -71 63 -220 8 -258 6 -308 -16 -33 -15 -56 -35 -75 -66 l-28 -44 -26
42 c-49 79 -178 111 -329 84z m2130 -229 c132 -7 178 -13 189 -25 10 -9 12
-18 6 -24 -6 -5 -131 -11 -280 -14 -182 -2 -283 -8 -310 -16 -113 -37 -170
-184 -110 -287 19 -33 39 -50 88 -73 93 -45 170 -54 401 -48 287 8 432 33 706
122 221 72 294 87 410 88 164 0 271 -61 304 -174 41 -137 -2 -249 -124 -328
-121 -79 -282 -120 -612 -156 l-57 -6 15 -42 c33 -92 46 -215 54 -497 8 -315
15 -356 73 -432 18 -24 57 -60 87 -81 30 -21 57 -45 58 -53 2 -9 -19 -53 -48
-99 -58 -95 -150 -285 -235 -485 -77 -181 -101 -227 -128 -244 -24 -16 -325
-96 -360 -96 -20 0 -22 4 -19 45 4 40 2 45 -16 45 -12 0 -33 -5 -48 -10 -34
-13 -38 -9 -23 23 6 14 9 37 5 52 -6 24 -10 25 -44 19 -36 -7 -37 -6 -19 13 9
11 17 31 17 46 0 36 44 47 195 47 66 0 130 3 143 6 41 11 135 219 197 435 35
119 35 123 17 143 -10 12 -72 80 -138 151 -194 212 -214 237 -358 456 -57 85
-106 145 -152 187 -73 66 -84 71 -104 47 -11 -13 -8 -24 15 -66 15 -28 25 -52
23 -53 -1 -2 -239 -72 -528 -156 -289 -84 -526 -153 -526 -154 -1 0 5 -34 14
-74 15 -71 15 -74 -6 -118 -20 -41 -172 -295 -388 -649 -48 -78 -93 -167 -113
-222 -20 -58 -41 -100 -57 -112 -26 -21 -334 -100 -404 -104 -35 -1 -44 1 -42
13 6 27 5 70 -2 77 -4 4 -24 2 -46 -4 -47 -12 -54 -8 -35 21 8 11 15 33 15 49
0 28 -2 29 -40 25 -43 -4 -49 2 -25 22 8 7 15 23 15 36 0 33 33 44 128 44 42
0 114 3 160 7 l83 6 28 56 c16 31 43 98 60 149 31 93 121 446 121 475 0 8 21
39 46 69 66 77 129 176 148 231 9 26 16 80 17 120 0 65 1 70 14 52 8 -11 32
-40 55 -63 22 -24 40 -48 40 -54 0 -19 29 13 59 66 45 78 64 156 60 250 -1 44
-1 91 -1 104 l2 22 21 -21 c24 -24 72 -46 112 -51 28 -3 28 -3 31 60 2 56 11
80 79 215 42 84 83 177 92 208 l16 56 77 -18 c222 -52 531 -76 770 -60 327 22
442 24 552 10 257 -34 604 7 768 90 100 51 138 109 127 193 -8 58 -38 105 -85
132 -30 18 -51 21 -145 20 -116 -1 -168 -12 -414 -89 -241 -75 -470 -109 -731
-108 -404 1 -564 91 -548 310 11 155 101 233 291 253 104 11 124 11 317 0z
m-1750 -52 l45 50 110 -48 c105 -46 112 -48 156 -38 54 12 90 -1 122 -44 27
-36 16 -88 -27 -132 l-34 -33 35 -62 35 -62 -35 -42 c-19 -23 -64 -78 -101
-122 l-66 -79 0 -82 0 -82 -44 -28 c-41 -26 -46 -34 -61 -95 l-17 -67 -51 -13
c-67 -16 -181 -15 -232 4 -37 13 -40 17 -55 77 -14 55 -20 66 -58 92 l-42 29
0 80 0 80 -100 119 c-55 65 -100 124 -100 130 0 5 14 35 31 65 l31 55 -36 40
c-29 32 -36 48 -36 80 0 72 62 112 141 92 37 -9 49 -6 151 38 l112 48 40 -50
41 -50 45 50z m-1232 -60 c5 -7 38 -103 72 -213 34 -110 69 -215 77 -233 18
-38 136 -150 229 -219 35 -26 64 -52 64 -57 0 -6 34 -79 76 -163 69 -136 78
-159 80 -215 3 -63 3 -63 31 -60 40 5 88 27 112 51 19 19 21 19 22 4 0 -10 2
-67 3 -128 2 -60 6 -120 10 -132 7 -20 1 -24 -88 -52 -128 -41 -164 -41 -193
2 -61 92 -127 201 -274 454 -89 153 -180 303 -201 334 -21 31 -49 81 -63 112
-19 41 -42 69 -89 107 -35 28 -69 63 -75 76 -16 35 -14 65 3 58 7 -3 26 6 42
21 l29 25 -44 39 c-39 35 -43 41 -36 71 6 27 9 30 17 17 12 -22 61 -22 82 -1
17 17 10 40 -18 63 -23 19 -10 31 34 31 21 0 42 5 45 10 9 14 41 12 53 -2z
m2991 -1477 l83 -79 -25 -43 c-68 -117 -85 -244 -42 -314 14 -22 25 -46 25
-52 0 -7 -16 -31 -36 -52 -30 -34 -197 -341 -281 -519 -15 -32 -35 -58 -52
-67 -37 -19 -334 -95 -371 -95 -28 0 -29 1 -18 25 15 33 -4 79 -30 71 -9 -2
-28 -7 -40 -11 -21 -6 -23 -5 -13 13 6 12 11 35 11 53 0 31 -1 31 -35 26 -33
-5 -47 5 -25 18 6 3 10 19 10 35 0 25 5 31 38 39 20 6 84 11 142 12 58 0 127
4 153 7 l49 7 90 210 c110 258 112 274 47 342 -88 92 -239 298 -239 326 0 6
40 8 110 4 101 -5 110 -4 110 12 0 10 -9 30 -20 44 -11 14 -17 28 -13 30 10 6
137 27 188 31 105 8 96 11 184 -73z"/>
<path d="M6390 13942 c0 -11 170 -105 177 -98 3 3 8 28 11 56 l5 50 -97 0
c-53 0 -96 -4 -96 -8z"/>
<path d="M6838 13943 l-78 -4 0 -164 0 -164 -126 -3 -127 -3 72 -49 c71 -49
71 -49 71 -95 0 -41 -4 -49 -29 -64 -16 -9 -50 -17 -75 -17 -38 0 -46 -3 -46
-19 0 -33 86 -35 147 -2 18 9 34 7 84 -9 63 -21 106 -20 121 3 14 23 8 27 -39
27 -69 0 -113 29 -113 74 0 42 20 63 91 97 l52 24 -6 65 c-4 36 -9 95 -13 131
l-7 65 86 49 c47 27 83 53 81 57 -3 4 -20 7 -37 6 -18 -1 -67 -4 -109 -5z"/>
</g>
</svg>
